# xmcd
#
# Track frame offsets:
#	150
#	18971
#	37108
#	56721
#	75890
#	95262
#	115889
#	131828
#	149758
#	166267
#	183423
#	201185
#	217414
#	236779
#	256668
#	272269
#	290752
#	314203
#	335299
#
# Disc length: 4775 seconds
#
# Revision: 0
# Processed by: cddbd v1.5.2PL0 Copyright (c) Steve Scherf et al.
# Submitted via: EZCDAudioConverter 2.2.2.1
#
DISCID=2312a513
DTITLE=Franco de Vita - Lo Mejor
DYEAR=2002
DGENRE=Hispano
TTITLE0=Si la ves (Feat. Sin Bandera)
TTITLE1=Tu de que vas
TTITLE2=Si tu no estas
TTITLE3=Como decirte no
TTITLE4=Y te pienso
TTITLE5=No basta
TTITLE6=No hay cielo
TTITLE7=Un buen perdedor
TTITLE8=Solo me importas tu
TTITLE9=Te amo
TTITLE10=Descansa tu amor en mi
TTITLE11=Como apartarte de mi
TTITLE12=Te veo venir soledad
TTITLE13=Fuera de este mundo
TTITLE14=Contra viento y marea
TTITLE15=Vuelve
TTITLE16=Louis
TTITLE17=Traigo una pena
TTITLE18=Ay Dios
EXTD=
EXTT0=
EXTT1=
EXTT2=
EXTT3=
EXTT4=
EXTT5=
EXTT6=
EXTT7=
EXTT8=
EXTT9=
EXTT10=
EXTT11=
EXTT12=
EXTT13=
EXTT14=
EXTT15=
EXTT16=
EXTT17=
EXTT18=
PLAYORDER=
